<?xml version="1.0" encoding="utf-8"?>
<!-- Generator: Adobe Illustrator 26.5.0, SVG Export Plug-In . SVG Version: 6.00 Build 0)  -->
<svg version="1.1" id="Layer_1" xmlns="http://www.w3.org/2000/svg" xmlns:xlink="http://www.w3.org/1999/xlink" x="0px" y="0px"
	 viewBox="0 0 1920 1080" style="enable-background:new 0 0 1920 1080;" xml:space="preserve">
<style type="text/css">
	.st0{fill:#FFFFFF;}
</style>
<path class="st0" d="M1427.7,572.5c-11,13.1-24.1,23.3-39.2,30.7c-15.1,7.4-30.6,11.1-46.4,11.1c-28.9,0-51.7-10.8-68.4-32.5
	c-16.7-21.7-25-50.9-25-87.7c0-26.5,4.9-51.6,14.7-75.3c9.8-23.7,22.4-41.1,37.9-52.1l19.1,127.5h110.4l17.5-133.2
	c-47.8-4.5-94.6-6.7-140.4-6.7c-59.2,0-105.7,16.9-139.6,50.6c-33.9,33.7-50.8,79-50.8,135.7c0,9.6,0.5,19,1.5,28
	c-2.7-3.3-5.7-6.5-9.1-9.5c-19.3-17.7-44.4-28.3-75.3-31.7c24.4-3.1,45-12.4,61.7-27.9c16.7-15.5,25-34.1,25-55.7
	c0-25.8-9.5-46.3-28.6-61.4c-19.1-15.1-43.6-22.7-73.5-22.7H790v265l-88.2-265h-143v20.6l7.2,25.8l-94.4,314.8H613l-15.5-65.5
	l-71.2-62.4v-0.5H628l42.8,128.5H790h32H1030c32,0,58.1-8.7,78.4-26.1c17.6-15.1,27.6-34.8,29.9-59.2c7,13.8,15.7,26.5,26.1,38.1
	c31.3,34.8,71.4,52.1,120.2,52.1c38.2,0,72-13.3,101.4-40c29.4-26.7,47.6-60.5,54.4-101.4l-8.3-12.4L1427.7,572.5z M529.4,579.4
	l44.4-148.6l50.1,148.6H529.4z M927.8,370.4h6.2c33.4,1,50.1,26.5,50.1,76.4c0,48.5-16.7,73.6-50.1,75.4h-6.2V370.4z M934.5,710.5
	h-6.7V533h6.2c37.8,2.1,56.8,31.8,56.8,89.3C990.8,680.4,972,709.8,934.5,710.5"/>
</svg>
